<?xml version="1.0" standalone="no"?>
<!DOCTYPE svg PUBLIC "-//W3C//DTD SVG 20010904//EN"
 "http://www.w3.org/TR/2001/REC-SVG-20010904/DTD/svg10.dtd">
<svg version="1.0" xmlns="http://www.w3.org/2000/svg"
 width="512.000000pt" height="512.000000pt" viewBox="0 0 512.000000 512.000000"
 preserveAspectRatio="xMidYMid meet">

<g transform="translate(0.000000,512.000000) scale(0.100000,-0.100000)"
fill="#2c3d8f" stroke="none">
<path d="M2026 4415 c-49 -17 -103 -68 -127 -120 -15 -32 -19 -64 -19 -157 l0
-118 -302 0 c-184 0 -318 -4 -342 -11 -50 -14 -118 -82 -134 -135 -7 -25 -12
-102 -12 -195 0 -127 4 -161 19 -194 26 -58 88 -110 149 -125 l52 -12 2 -1216
c3 -1214 3 -1217 24 -1263 31 -66 78 -114 142 -146 l57 -28 1004 -3 c1122 -3
1066 -6 1159 67 34 27 59 59 78 98 l29 58 3 1217 2 1216 52 12 c61 15 123 67
149 125 16 33 19 67 19 200 0 148 -2 164 -24 211 -25 54 -69 94 -125 113 -22
7 -137 11 -337 11 l-304 0 0 118 c0 92 -4 126 -19 157 -23 51 -89 111 -138
124 -62 17 -1007 14 -1057 -4z m1027 -137 c41 -21 46 -39 47 -150 l0 -108
-540 0 -540 0 0 108 c0 112 5 129 45 150 29 16 958 16 988 0z m812 -423 c24
-23 25 -28 25 -167 -1 -149 -4 -164 -47 -186 -31 -17 -2535 -17 -2566 0 -43
22 -46 37 -47 186 0 139 1 144 25 167 l24 25 1281 0 1281 0 24 -25z m-195
-1701 c0 -1331 5 -1236 -68 -1292 l-35 -27 -1007 0 -1007 0 -35 27 c-73 56
-68 -39 -68 1292 l0 1196 1110 0 1110 0 0 -1196z"/>
<path d="M1897 2862 c-16 -17 -17 -85 -17 -770 0 -739 0 -752 20 -772 29 -29
74 -26 99 6 21 26 21 33 21 761 0 737 -1 763 -34 785 -21 14 -73 8 -89 -10z"/>
<path d="M2506 2858 c-14 -20 -16 -109 -16 -768 l0 -747 23 -21 c30 -28 68
-28 95 1 l22 23 0 745 c0 835 4 789 -70 789 -29 0 -43 -6 -54 -22z"/>
<path d="M3134 2872 c-33 -22 -34 -48 -34 -785 0 -728 0 -735 21 -761 25 -32
70 -35 99 -6 20 20 20 33 20 773 0 718 -1 755 -18 770 -19 17 -68 22 -88 9z"/>
</g>
</svg>
