<?xml version="1.0" standalone="no"?>
<!DOCTYPE svg PUBLIC "-//W3C//DTD SVG 20010904//EN"
 "http://www.w3.org/TR/2001/REC-SVG-20010904/DTD/svg10.dtd">
<svg version="1.0" xmlns="http://www.w3.org/2000/svg"
 width="512.000000pt" height="512.000000pt" viewBox="0 0 512.000000 512.000000"
 preserveAspectRatio="xMidYMid meet">

<g transform="translate(0.000000,512.000000) scale(0.100000,-0.100000)"
fill="#000000" stroke="none">
<path d="M2392 5110 c-557 -79 -988 -483 -1108 -1041 -26 -118 -26 -380 0
-499 58 -267 167 -471 356 -661 190 -191 403 -307 672 -365 117 -26 380 -25
498 0 265 57 479 173 666 360 187 186 303 402 360 668 26 117 25 380 0 498
-57 265 -173 479 -360 666 -184 184 -389 297 -646 355 -98 22 -340 33 -438 19z
m393 -214 c219 -47 400 -148 560 -311 398 -406 420 -1038 52 -1476 -149 -178
-372 -312 -609 -366 -101 -23 -355 -23 -456 0 -429 98 -756 428 -849 855 -22
97 -24 328 -4 427 44 224 150 418 316 580 170 165 374 267 611 305 81 12 294
5 379 -14z"/>
<path d="M2261 4506 c-43 -24 -50 -51 -51 -198 l0 -138 -135 0 c-147 0 -178
-8 -201 -51 -19 -37 -21 -553 -2 -594 21 -46 54 -55 203 -55 l135 0 0 -135 c0
-83 5 -144 12 -160 23 -52 44 -55 338 -55 294 0 315 3 338 55 7 16 12 77 12
160 l0 135 135 0 c149 0 182 9 203 55 19 41 17 557 -2 594 -23 43 -54 51 -201
51 l-135 0 0 135 c0 147 -8 178 -51 201 -39 20 -562 20 -598 0z m449 -321 c0
-208 7 -215 215 -215 l135 0 0 -150 0 -150 -135 0 c-208 0 -215 -7 -215 -215
l0 -135 -150 0 -150 0 0 135 c0 208 -7 215 -215 215 l-135 0 0 150 0 150 135
0 c208 0 215 7 215 215 l0 135 150 0 150 0 0 -135z"/>
<path d="M217 3489 c-83 -20 -146 -68 -185 -143 -22 -42 -26 -64 -26 -126 0
-73 3 -83 101 -310 55 -129 164 -383 241 -565 243 -573 334 -762 431 -894 62
-86 176 -200 423 -425 120 -109 218 -204 218 -212 0 -10 -12 -14 -40 -14 -21
0 -51 -5 -65 -12 -53 -24 -55 -40 -55 -388 0 -348 2 -364 55 -388 20 -9 321
-12 1246 -12 1326 0 1261 -3 1287 55 19 41 17 657 -2 694 -18 33 -54 51 -106
51 -28 0 -40 4 -40 14 0 8 98 103 218 212 119 109 250 231 291 273 184 187
252 313 563 1046 77 182 186 436 241 565 98 227 101 237 101 310 0 62 -4 84
-26 126 -88 168 -305 198 -440 62 -25 -25 -128 -182 -247 -378 -112 -184 -205
-336 -206 -338 -1 -1 -32 6 -68 15 -56 15 -74 16 -123 5 -32 -6 -75 -23 -95
-37 -22 -14 -143 -155 -282 -327 -135 -167 -275 -333 -313 -369 -38 -36 -158
-132 -268 -214 -222 -165 -347 -282 -423 -397 -28 -42 -54 -82 -57 -90 -5 -11
-7 -11 -12 0 -3 8 -29 48 -57 90 -77 116 -200 231 -422 397 -110 82 -231 178
-269 214 -38 36 -178 202 -313 369 -139 172 -260 313 -282 327 -20 14 -63 31
-95 37 -49 11 -67 10 -123 -5 -36 -9 -67 -16 -68 -15 -1 2 -94 154 -206 338
-119 196 -222 353 -247 378 -69 70 -170 102 -255 81z m86 -204 c40 -20 24 5
280 -416 177 -290 217 -362 217 -392 0 -93 66 -269 202 -541 138 -277 174
-326 238 -326 58 0 109 61 96 115 -4 14 -29 65 -57 113 -106 183 -279 567
-279 620 0 52 68 79 108 45 11 -10 122 -146 248 -303 125 -157 260 -316 298
-354 39 -38 167 -140 284 -228 117 -88 244 -191 283 -229 140 -138 224 -317
236 -502 l6 -87 -422 0 -421 0 0 45 c0 24 -5 55 -11 69 -7 14 -98 103 -203
198 -265 240 -410 382 -466 458 -60 82 -120 194 -206 385 -65 146 -489 1139
-521 1221 -20 51 -11 89 25 108 34 19 28 19 65 1z m4576 0 c54 -27 53 -56 0
-177 -22 -51 -113 -264 -201 -473 -308 -732 -405 -939 -498 -1065 -57 -76
-213 -230 -471 -464 -103 -92 -192 -179 -198 -192 -6 -14 -11 -45 -11 -69 l0
-45 -420 0 -420 0 0 55 c0 130 51 289 130 405 68 100 160 184 392 358 117 88
245 190 284 228 38 38 173 197 298 354 126 157 237 293 248 303 40 34 108 7
108 -45 0 -52 -173 -438 -279 -620 -28 -48 -53 -99 -57 -113 -13 -54 38 -115
96 -115 64 0 100 49 238 326 136 272 202 448 202 541 0 30 40 102 217 392 255
418 240 396 278 415 37 19 30 19 64 1z m-2419 -2885 l0 -200 -500 0 -500 0 0
200 0 200 500 0 500 0 0 -200z m1200 0 l0 -200 -500 0 -500 0 0 200 0 200 500
0 500 0 0 -200z"/>
</g>
</svg>
