<?xml version="1.0" standalone="no"?>
<!DOCTYPE svg PUBLIC "-//W3C//DTD SVG 20010904//EN"
 "http://www.w3.org/TR/2001/REC-SVG-20010904/DTD/svg10.dtd">
<svg version="1.0" xmlns="http://www.w3.org/2000/svg"
 width="472.000000pt" height="475.000000pt" viewBox="0 0 472.000000 475.000000"
 preserveAspectRatio="xMidYMid meet">

<g transform="translate(0.000000,475.000000) scale(0.100000,-0.100000)"
fill="#2c3d8f" stroke="none">
<path d="M2085 4554 c-16 -2 -77 -9 -135 -15 -198 -20 -406 -58 -575 -103
-198 -54 -233 -64 -300 -89 -110 -40 -242 -94 -310 -128 -57 -28 -63 -34 -69
-67 -10 -60 -6 -2021 4 -2212 10 -192 22 -256 74 -421 78 -242 214 -462 416
-673 275 -286 612 -505 1079 -701 l111 -47 57 23 c272 108 516 230 692 347
115 76 241 169 292 214 14 13 54 48 89 78 130 114 294 322 387 490 86 156 154
351 178 510 21 143 34 2420 14 2436 -21 17 -228 101 -359 145 -134 46 -410
119 -560 148 -249 49 -410 64 -740 66 -173 2 -328 1 -345 -1z m570 -264 c371
-23 787 -111 1120 -237 l50 -19 0 -1084 c0 -1019 -1 -1091 -19 -1185 -21 -115
-63 -239 -113 -340 -50 -100 -140 -235 -156 -235 -14 0 -405 575 -414 608 -2
10 54 109 141 247 80 127 173 275 208 330 35 55 65 103 66 107 2 5 -74 8 -170
8 l-173 -1 -120 -189 c-66 -105 -123 -190 -126 -190 -3 0 -28 33 -55 73 -27
39 -90 132 -141 205 -51 73 -93 135 -93 136 0 2 24 16 53 30 73 37 172 128
219 200 21 33 50 96 65 140 23 72 26 97 27 226 1 125 -2 155 -22 220 -70 225
-269 400 -512 451 -102 21 -311 28 -657 22 l-363 -6 0 -1064 0 -1063 208 0
209 0 6 98 c4 53 7 226 7 385 l0 287 169 0 168 0 36 -52 c62 -92 314 -460 364
-533 26 -38 46 -76 45 -83 -2 -7 -102 -161 -223 -342 -120 -181 -222 -336
-225 -345 -5 -13 14 -15 157 -15 90 0 173 3 184 6 11 3 27 17 36 32 9 15 47
77 84 137 98 158 185 310 185 324 0 26 21 7 61 -57 106 -169 276 -419 299
-439 14 -12 51 -34 83 -49 31 -15 57 -31 57 -34 0 -19 -182 -170 -315 -262
-204 -141 -623 -355 -687 -350 -26 1 -396 183 -495 243 -325 196 -554 411
-721 674 -63 100 -149 308 -175 425 -24 105 -28 267 -28 1233 0 568 1 1039 1
1048 0 19 182 90 344 136 457 128 877 173 1351 143z m-230 -845 c116 -56 171
-142 182 -283 15 -196 -70 -323 -241 -359 -70 -14 -462 -18 -470 -4 -3 5 -3
158 1 341 l6 332 241 -4 c214 -3 245 -6 281 -23z"/>
</g>
</svg>
