<?xml version="1.0" standalone="no"?>
<!DOCTYPE svg PUBLIC "-//W3C//DTD SVG 20010904//EN"
 "http://www.w3.org/TR/2001/REC-SVG-20010904/DTD/svg10.dtd">
<svg version="1.0" xmlns="http://www.w3.org/2000/svg"
 width="512.000000pt" height="512.000000pt" viewBox="0 0 512.000000 512.000000"
 preserveAspectRatio="xMidYMid meet">

<g transform="translate(0.000000,512.000000) scale(0.100000,-0.100000)"
fill="#000000" stroke="none">
<path d="M1768 4675 c-174 -43 -336 -175 -419 -342 l-31 -62 -367 -3 c-353 -3
-367 -4 -406 -25 -77 -41 -115 -105 -115 -193 0 -84 53 -161 132 -194 31 -14
94 -16 396 -16 l359 0 38 -77 c56 -114 170 -226 285 -281 109 -51 173 -66 285
-65 176 1 311 58 441 188 61 61 90 99 119 158 l38 77 999 0 c1093 0 1037 -3
1102 58 81 76 88 220 13 300 -12 13 -40 34 -62 45 l-40 22 -1007 5 -1007 5
-30 60 c-85 169 -246 298 -422 340 -78 18 -224 18 -301 0z"/>
<path d="M3085 3190 c-197 -42 -359 -163 -446 -334 l-44 -86 -1006 0 -1006 0
-44 -23 c-24 -13 -57 -43 -74 -66 -27 -39 -30 -50 -30 -121 0 -71 3 -82 30
-121 17 -23 50 -53 74 -66 l44 -23 1006 0 1006 0 44 -86 c102 -199 300 -328
526 -341 258 -15 489 123 606 360 l33 66 376 3 376 3 37 25 c21 14 50 43 65
64 24 35 27 49 27 117 0 70 -3 81 -30 120 -16 23 -50 53 -74 66 -44 23 -46 23
-410 23 l-366 0 -44 86 c-104 204 -306 332 -536 340 -55 2 -118 -1 -140 -6z"/>
<path d="M1860 1704 c-97 -16 -145 -31 -220 -66 -115 -55 -229 -168 -285 -280
l-38 -78 -359 0 c-302 0 -365 -2 -396 -16 -79 -33 -132 -110 -132 -194 0 -88
38 -152 115 -193 39 -21 53 -22 406 -25 l367 -3 31 -62 c181 -366 645 -472
964 -222 68 54 137 139 178 220 l30 60 1007 5 1007 5 40 22 c77 41 115 105
115 193 0 84 -53 161 -132 194 -33 14 -156 16 -1036 16 l-999 0 -38 78 c-73
148 -241 285 -400 326 -65 16 -184 27 -225 20z"/>
</g>
</svg>
